# xmcd
#
# Track frame offsets: 
#        150
#        60748
#        85271
#        111015
#        126232
#        150256
#        184774
#        201437
#        274908
#
# Disc length: 4436 seconds
#
# Revision: 0
# Processed by: cddbd v1.5.1PL2 Copyright (c) Steve Scherf et al.
# Submitted via: ExactAudioCopy v0.90b4
#
DISCID=7a115209
DTITLE=Woodbox Gang - Showdown
DYEAR=2002
DGENRE=Indie
TTITLE0=Showdown - Devil Blues
TTITLE1=Soap In My Mouth
TTITLE2=Family Night
TTITLE3=Squirm Squirm Squirm
TTITLE4=Wrong Side Of Town
TTITLE5=Godbox Wagon
TTITLE6=Skyclad
TTITLE7=Devil's Got Dibs On Me - In My Time Of Dyin'
TTITLE8=They Came In Black
EXTD=
EXTT0=
EXTT1=
EXTT2=
EXTT3=
EXTT4=
EXTT5=
EXTT6=
EXTT7=
EXTT8=
PLAYORDER=
